<mxfile host="65bd71144e">
    <diagram id="4-f0r1-gmBF-NOGe13Y7" name="Page-1">
        <mxGraphModel dx="1415" dy="1017" grid="1" gridSize="10" guides="1" tooltips="1" connect="1" arrows="1" fold="1" page="1" pageScale="1" pageWidth="850" pageHeight="1100" math="0" shadow="0">
            <root>
                <mxCell id="0"/>
                <mxCell id="1" parent="0"/>
                <mxCell id="37" value="CLIENT" style="rounded=1;whiteSpace=wrap;html=1;fillColor=none;horizontal=1;labelPosition=center;verticalLabelPosition=top;align=center;verticalAlign=bottom;fontSize=25;fontColor=#ffffff;strokeColor=#006EAF;strokeWidth=6;" vertex="1" parent="1">
                    <mxGeometry x="90" y="40" width="310" height="560" as="geometry"/>
                </mxCell>
                <mxCell id="38" value="&lt;font color=&quot;#ffffff&quot;&gt;SERVEUR&lt;/font&gt;" style="rounded=1;whiteSpace=wrap;html=1;fillColor=none;horizontal=1;labelPosition=center;verticalLabelPosition=top;align=center;verticalAlign=bottom;fontSize=25;fontColor=#000000;strokeColor=#B09500;strokeWidth=6;" vertex="1" parent="1">
                    <mxGeometry x="480" y="40" width="310" height="560" as="geometry"/>
                </mxCell>
                <UserObject label="listen()" treeRoot="1" id="25">
                    <mxCell style="whiteSpace=wrap;html=1;align=center;treeFolding=1;treeMoving=1;newEdgeStyle={&quot;edgeStyle&quot;:&quot;elbowEdgeStyle&quot;,&quot;startArrow&quot;:&quot;none&quot;,&quot;endArrow&quot;:&quot;none&quot;};fontSize=20;fillColor=none;strokeWidth=3;" vertex="1" parent="1">
                        <mxGeometry x="520" y="150" width="240" height="60" as="geometry"/>
                    </mxCell>
                </UserObject>
                <UserObject label="&lt;font style=&quot;font-size: 14px&quot;&gt;&amp;nbsp;socket(PF_INET, SOCK_STREAM, &lt;span style=&quot;white-space: pre&quot;&gt;&#9;&lt;/span&gt;&lt;span style=&quot;white-space: pre&quot;&gt;&#9;&lt;/span&gt;&lt;span style=&quot;white-space: pre&quot;&gt;&#9;&lt;/span&gt;NULL)&lt;/font&gt;" treeRoot="1" id="26">
                    <mxCell style="whiteSpace=wrap;html=1;align=left;treeFolding=1;treeMoving=1;newEdgeStyle={&quot;edgeStyle&quot;:&quot;elbowEdgeStyle&quot;,&quot;startArrow&quot;:&quot;none&quot;,&quot;endArrow&quot;:&quot;none&quot;};fontSize=15;fillColor=none;fontColor=#ffffff;strokeColor=#006EAF;strokeWidth=3;" vertex="1" parent="1">
                        <mxGeometry x="520" y="80" width="240" height="60" as="geometry"/>
                    </mxCell>
                </UserObject>
                <UserObject label="accept()" treeRoot="1" id="27">
                    <mxCell style="whiteSpace=wrap;html=1;align=center;treeFolding=1;treeMoving=1;newEdgeStyle={&quot;edgeStyle&quot;:&quot;elbowEdgeStyle&quot;,&quot;startArrow&quot;:&quot;none&quot;,&quot;endArrow&quot;:&quot;none&quot;};fontSize=20;fillColor=none;strokeWidth=3;" vertex="1" parent="1">
                        <mxGeometry x="520" y="220" width="240" height="60" as="geometry"/>
                    </mxCell>
                </UserObject>
                <UserObject label="poll()&lt;br style=&quot;font-size: 20px;&quot;&gt;select()" treeRoot="1" id="28">
                    <mxCell style="whiteSpace=wrap;html=1;align=center;treeFolding=1;treeMoving=1;newEdgeStyle={&quot;edgeStyle&quot;:&quot;elbowEdgeStyle&quot;,&quot;startArrow&quot;:&quot;none&quot;,&quot;endArrow&quot;:&quot;none&quot;};fontSize=20;strokeWidth=3;fillColor=none;" vertex="1" parent="1">
                        <mxGeometry x="150" y="760" width="240" height="60" as="geometry"/>
                    </mxCell>
                </UserObject>
                <UserObject label="send()" treeRoot="1" id="29">
                    <mxCell style="whiteSpace=wrap;html=1;align=center;treeFolding=1;treeMoving=1;newEdgeStyle={&quot;edgeStyle&quot;:&quot;elbowEdgeStyle&quot;,&quot;startArrow&quot;:&quot;none&quot;,&quot;endArrow&quot;:&quot;none&quot;};fontSize=20;fillColor=none;strokeWidth=3;" vertex="1" parent="1">
                        <mxGeometry x="320" y="430" width="240" height="60" as="geometry"/>
                    </mxCell>
                </UserObject>
                <UserObject label="recv()" treeRoot="1" id="30">
                    <mxCell style="whiteSpace=wrap;html=1;align=center;treeFolding=1;treeMoving=1;newEdgeStyle={&quot;edgeStyle&quot;:&quot;elbowEdgeStyle&quot;,&quot;startArrow&quot;:&quot;none&quot;,&quot;endArrow&quot;:&quot;none&quot;};fontSize=20;fillColor=none;strokeWidth=3;" vertex="1" parent="1">
                        <mxGeometry x="320" y="510" width="240" height="60" as="geometry"/>
                    </mxCell>
                </UserObject>
                <UserObject label="bind()" treeRoot="1" id="31">
                    <mxCell style="whiteSpace=wrap;html=1;align=center;treeFolding=1;treeMoving=1;newEdgeStyle={&quot;edgeStyle&quot;:&quot;elbowEdgeStyle&quot;,&quot;startArrow&quot;:&quot;none&quot;,&quot;endArrow&quot;:&quot;none&quot;};fontSize=20;fillColor=none;strokeWidth=3;" vertex="1" parent="1">
                        <mxGeometry x="520" y="290" width="240" height="60" as="geometry"/>
                    </mxCell>
                </UserObject>
                <UserObject label="connect()" treeRoot="1" id="32">
                    <mxCell style="whiteSpace=wrap;html=1;align=center;treeFolding=1;treeMoving=1;newEdgeStyle={&quot;edgeStyle&quot;:&quot;elbowEdgeStyle&quot;,&quot;startArrow&quot;:&quot;none&quot;,&quot;endArrow&quot;:&quot;none&quot;};fontSize=20;fillColor=none;strokeWidth=3;" vertex="1" parent="1">
                        <mxGeometry x="320" y="360" width="240" height="60" as="geometry"/>
                    </mxCell>
                </UserObject>
                <UserObject label="inet_addr()" treeRoot="1" id="33">
                    <mxCell style="whiteSpace=wrap;html=1;align=center;treeFolding=1;treeMoving=1;newEdgeStyle={&quot;edgeStyle&quot;:&quot;elbowEdgeStyle&quot;,&quot;startArrow&quot;:&quot;none&quot;,&quot;endArrow&quot;:&quot;none&quot;};fontSize=20;fillColor=none;strokeWidth=3;" vertex="1" parent="1">
                        <mxGeometry x="460" y="760" width="240" height="60" as="geometry"/>
                    </mxCell>
                </UserObject>
            </root>
        </mxGraphModel>
    </diagram>
</mxfile>